<?xml version="1.0" encoding="utf-8"?>
<!-- Generator: Adobe Illustrator 27.1.1, SVG Export Plug-In . SVG Version: 6.00 Build 0)  -->
<svg version="1.1" id="Lager_1" xmlns="http://www.w3.org/2000/svg" xmlns:xlink="http://www.w3.org/1999/xlink" x="0px" y="0px"
	 viewBox="0 0 200 200" style="enable-background:new 0 0 200 200;" xml:space="preserve">
<style type="text/css">
	.st0{fill:url(#SVGID_1_);stroke:#000000;stroke-miterlimit:10;}
	.st1{fill:url(#SVGID_00000029014639281640623920000011500854430502401690_);stroke:#000000;stroke-miterlimit:10;}
	.st2{fill:url(#SVGID_00000073713125709969393730000012223301536101174460_);stroke:#000000;stroke-miterlimit:10;}
	.st3{fill:#FF683F;stroke:#000000;stroke-miterlimit:10;}
</style>
<g>
	<g>
		<g>
			
				<linearGradient id="SVGID_1_" gradientUnits="userSpaceOnUse" x1="22.1121" y1="67.135" x2="84.6921" y2="67.135" gradientTransform="matrix(1 0 0 -1 0 200)">
				<stop  offset="0" style="stop-color:#FFFFFF"/>
				<stop  offset="0.8155" style="stop-color:#000000"/>
			</linearGradient>
			<path id="big-wheel-one" class="st0" d="M78.64,133.01c0.01-1.65-0.14-3.26-0.45-4.84l6.5-5.8c-0.46-1.34-0.97-2.63-1.58-3.88l-8.69,0.4
				c-1.8-2.71-4.12-5.05-6.81-6.88l0.49-8.69c-1.25-0.62-2.54-1.16-3.86-1.63l-5.87,6.42c-1.56-0.32-3.18-0.49-4.83-0.49
				c-1.65,0-3.26,0.15-4.84,0.45l-5.8-6.5c-1.33,0.45-2.63,0.97-3.88,1.58l0.4,8.69c-2.71,1.8-5.05,4.12-6.88,6.8l-8.69-0.49
				c-0.62,1.24-1.17,2.54-1.62,3.87l6.42,5.87c-0.32,1.56-0.49,3.18-0.49,4.83c-0.01,1.66,0.14,3.26,0.45,4.84l-6.5,5.8
				c0.46,1.34,0.97,2.63,1.58,3.88l8.69-0.4c1.8,2.71,4.12,5.05,6.81,6.88l-0.49,8.69c1.25,0.62,2.54,1.16,3.86,1.63l5.87-6.42
				c1.56,0.32,3.18,0.49,4.83,0.49s3.26-0.15,4.84-0.45l5.8,6.5c1.33-0.45,2.63-0.97,3.88-1.58l-0.4-8.69
				c2.71-1.8,5.05-4.12,6.88-6.8l8.69,0.49c0.62-1.24,1.17-2.54,1.62-3.87l-6.42-5.87C78.47,136.28,78.64,134.66,78.64,133.01z
				 M67.01,132.94c0,0.89-0.09,1.76-0.26,2.61l3.46,3.17c-0.24,0.72-0.54,1.42-0.87,2.09l-4.69-0.26c-0.99,1.45-2.25,2.7-3.71,3.67
				l0.22,4.69c-0.67,0.33-1.38,0.61-2.09,0.85l-3.13-3.51c-0.85,0.16-1.72,0.24-2.61,0.24s-1.76-0.09-2.6-0.26l-3.17,3.46
				c-0.71-0.25-1.41-0.54-2.08-0.88l0.26-4.69c-1.45-0.99-2.7-2.25-3.67-3.71l-4.69,0.22c-0.33-0.67-0.6-1.37-0.85-2.09l3.51-3.13
				c-0.17-0.85-0.25-1.72-0.24-2.61c0-0.89,0.09-1.76,0.26-2.61l-3.46-3.17c0.24-0.72,0.54-1.42,0.87-2.09l4.69,0.26
				c0.99-1.45,2.25-2.7,3.71-3.67l-0.22-4.69c0.67-0.33,1.38-0.61,2.09-0.85l3.13,3.51c0.85-0.16,1.72-0.24,2.61-0.24
				s1.76,0.09,2.6,0.26l3.17-3.46c0.71,0.25,1.41,0.54,2.08,0.88l-0.26,4.69c1.45,0.99,2.7,2.25,3.67,3.71l4.69-0.22
				c0.33,0.67,0.6,1.37,0.85,2.09l-3.51,3.13C66.94,131.18,67.02,132.05,67.01,132.94z"/>
		</g>
	</g>
	<g>
		<g>
			<g>
				
					<linearGradient id="SVGID_00000134250150067896462620000002445347047377955747_" gradientUnits="userSpaceOnUse" x1="103.6059" y1="76.4719" x2="166.1883" y2="76.4719" gradientTransform="matrix(0.9239 -0.3827 -0.3827 -0.9239 19.3428 229.1904)">
					<stop  offset="0" style="stop-color:#FFFFFF"/>
					<stop  offset="0.8155" style="stop-color:#000000"/>
				</linearGradient>
				<path id="big-wheel-two" style="fill:url(#SVGID_00000134250150067896462620000002445347047377955747_);stroke:#000000;stroke-miterlimit:10;" d="
					M138.08,97.38c-0.62-1.53-1.38-2.96-2.27-4.3l3.79-7.85c-0.94-1.06-1.9-2.06-2.94-2.98l-7.88,3.7c-2.7-1.81-5.74-3.09-8.92-3.75
					l-2.87-8.22c-1.39-0.09-2.79-0.1-4.19-0.03l-2.97,8.18c-1.56,0.3-3.13,0.76-4.65,1.4c-1.52,0.63-2.95,1.39-4.3,2.27l-7.85-3.79
					c-1.06,0.92-2.06,1.9-2.98,2.94l3.7,7.88c-1.81,2.7-3.09,5.74-3.75,8.92l-8.22,2.87c-0.1,1.38-0.11,2.79-0.02,4.2l8.18,2.97
					c0.3,1.56,0.76,3.13,1.4,4.65c0.63,1.54,1.38,2.96,2.27,4.3l-3.79,7.85c0.94,1.06,1.9,2.06,2.94,2.98l7.88-3.7
					c2.7,1.81,5.74,3.09,8.92,3.75l2.87,8.22c1.39,0.09,2.79,0.1,4.19,0.03l2.97-8.18c1.56-0.3,3.13-0.76,4.65-1.4
					c1.52-0.63,2.95-1.39,4.3-2.27l7.85,3.79c1.06-0.92,2.06-1.9,2.98-2.94l-3.7-7.88c1.81-2.7,3.09-5.74,3.75-8.92l8.22-2.87
					c0.1-1.38,0.11-2.79,0.02-4.2l-8.18-2.97C139.18,100.46,138.72,98.9,138.08,97.38z M127.32,101.77
					c0.34,0.82,0.59,1.67,0.75,2.51l4.41,1.6c0.05,0.76,0.04,1.52-0.01,2.26l-4.43,1.55c-0.36,1.71-1.05,3.35-2.02,4.81l1.99,4.25
					c-0.5,0.56-1.04,1.09-1.61,1.59l-4.23-2.04c-0.73,0.48-1.5,0.88-2.32,1.22s-1.66,0.59-2.51,0.75l-1.6,4.41
					c-0.75,0.04-1.51,0.04-2.26-0.02l-1.55-4.43c-1.72-0.36-3.36-1.04-4.81-2.02l-4.25,1.99c-0.56-0.5-1.08-1.04-1.59-1.61
					l2.04-4.23c-0.48-0.72-0.89-1.49-1.22-2.32c-0.34-0.82-0.59-1.67-0.75-2.51l-4.41-1.6c-0.05-0.76-0.04-1.52,0.01-2.26l4.43-1.55
					c0.36-1.71,1.05-3.35,2.02-4.81l-1.99-4.25c0.5-0.56,1.04-1.09,1.61-1.59l4.23,2.04c0.73-0.48,1.5-0.88,2.32-1.22
					s1.66-0.59,2.51-0.75l1.6-4.41c0.75-0.04,1.51-0.04,2.26,0.02l1.55,4.43c1.72,0.36,3.36,1.04,4.81,2.02l4.25-1.99
					c0.56,0.5,1.08,1.03,1.59,1.61l-2.04,4.23C126.57,100.17,126.98,100.94,127.32,101.77z"/>
			</g>
		</g>
	</g>
	<g>
		<g>
			<g>
				
					<linearGradient id="SVGID_00000165939174936874590820000008643390378469752749_" gradientUnits="userSpaceOnUse" x1="108.6851" y1="153.295" x2="171.2651" y2="153.295" gradientTransform="matrix(1 0 0 -1 0 200)">
					<stop  offset="0" style="stop-color:#FFFFFF"/>
					<stop  offset="0.8155" style="stop-color:#000000"/>
				</linearGradient>
				<path id="big-wheel-three" style="fill:url(#SVGID_00000165939174936874590820000008643390378469752749_);stroke:#000000;stroke-miterlimit:10;" d="
					M165.22,46.85c0.01-1.65-0.14-3.26-0.45-4.84l6.5-5.8c-0.46-1.34-0.97-2.63-1.58-3.88l-8.69,0.4c-1.8-2.71-4.12-5.05-6.81-6.88
					l0.49-8.69c-1.25-0.62-2.54-1.16-3.86-1.63l-5.87,6.42c-1.56-0.32-3.18-0.49-4.83-0.49c-1.65,0-3.26,0.15-4.84,0.45l-5.8-6.5
					c-1.33,0.45-2.63,0.97-3.88,1.58l0.4,8.69c-2.71,1.8-5.05,4.12-6.88,6.8l-8.69-0.49c-0.62,1.24-1.17,2.54-1.62,3.87l6.42,5.87
					c-0.32,1.56-0.49,3.18-0.49,4.83c-0.01,1.66,0.14,3.26,0.45,4.84l-6.5,5.8c0.46,1.34,0.97,2.63,1.58,3.88l8.69-0.4
					c1.8,2.71,4.12,5.05,6.81,6.88l-0.49,8.69c1.25,0.62,2.54,1.16,3.86,1.63l5.87-6.42c1.56,0.32,3.18,0.49,4.83,0.49
					c1.65,0,3.26-0.15,4.84-0.45l5.8,6.5c1.33-0.45,2.63-0.97,3.88-1.58l-0.4-8.69c2.71-1.8,5.05-4.12,6.88-6.8l8.69,0.49
					c0.62-1.24,1.17-2.54,1.62-3.87l-6.42-5.87C165.05,50.12,165.22,48.5,165.22,46.85z M153.6,46.78c0,0.89-0.09,1.76-0.26,2.61
					l3.46,3.17c-0.24,0.72-0.54,1.42-0.87,2.09l-4.69-0.26c-0.99,1.45-2.25,2.7-3.71,3.67l0.22,4.69c-0.67,0.33-1.38,0.61-2.09,0.85
					l-3.13-3.51c-0.85,0.16-1.72,0.24-2.61,0.24s-1.76-0.09-2.6-0.26l-3.17,3.46c-0.71-0.25-1.41-0.54-2.08-0.88l0.26-4.69
					c-1.45-0.99-2.7-2.25-3.67-3.71l-4.69,0.22c-0.33-0.67-0.6-1.37-0.85-2.09l3.51-3.13c-0.17-0.85-0.25-1.72-0.24-2.61
					c0-0.89,0.09-1.76,0.26-2.61l-3.46-3.17c0.24-0.72,0.54-1.42,0.87-2.09l4.69,0.26c0.99-1.45,2.25-2.7,3.71-3.67l-0.22-4.69
					c0.67-0.33,1.38-0.61,2.09-0.85l3.13,3.51c0.85-0.16,1.72-0.24,2.61-0.24s1.76,0.09,2.6,0.26l3.17-3.46
					c0.71,0.25,1.41,0.54,2.08,0.88l-0.26,4.69c1.45,0.99,2.7,2.25,3.67,3.71l4.69-0.22c0.33,0.67,0.6,1.37,0.85,2.09l-3.51,3.13
					C153.52,45.02,153.6,45.89,153.6,46.78z"/>
			</g>
		</g>
	</g>
	<g>
		<g>
			<g>
				<path id="small-wheel-one" class="st3" d="M102.76,65.96c0-0.53-0.04-1.04-0.14-1.55l2.08-1.85c-0.15-0.43-0.31-0.84-0.5-1.24l-2.78,0.13
					c-0.58-0.87-1.32-1.61-2.18-2.2l0.16-2.78c-0.4-0.2-0.81-0.37-1.23-0.52L96.28,58c-0.5-0.1-1.02-0.16-1.54-0.16
					c-0.53,0-1.04,0.05-1.55,0.14l-1.85-2.07c-0.43,0.14-0.84,0.31-1.24,0.5l0.13,2.78c-0.87,0.58-1.61,1.32-2.2,2.17l-2.78-0.16
					c-0.2,0.4-0.37,0.81-0.52,1.24l2.05,1.88c-0.1,0.5-0.16,1.02-0.16,1.54c0,0.53,0.04,1.04,0.14,1.55l-2.08,1.85
					c0.15,0.43,0.31,0.84,0.5,1.24l2.78-0.13c0.58,0.87,1.32,1.61,2.18,2.2l-0.16,2.78c0.4,0.2,0.81,0.37,1.23,0.52l1.88-2.05
					c0.5,0.1,1.02,0.16,1.54,0.16c0.53,0,1.04-0.05,1.55-0.14l1.87,2.07c0.43-0.14,0.84-0.31,1.24-0.5l-0.13-2.78
					c0.87-0.58,1.61-1.32,2.2-2.17l2.78,0.16c0.2-0.4,0.37-0.81,0.52-1.24l-2.05-1.88C102.7,67,102.76,66.49,102.76,65.96z
					 M99.04,65.94c0,0.28-0.03,0.56-0.08,0.83l1.11,1.01c-0.08,0.23-0.17,0.45-0.28,0.67l-1.5-0.08c-0.32,0.46-0.72,0.86-1.19,1.17
					l0.07,1.5c-0.22,0.11-0.44,0.19-0.67,0.27l-1-1.12c-0.27,0.05-0.55,0.08-0.83,0.08s-0.56-0.03-0.83-0.08l-1.01,1.11
					c-0.23-0.08-0.45-0.17-0.67-0.28l0.08-1.5c-0.46-0.32-0.86-0.72-1.17-1.19l-1.5,0.07c-0.11-0.22-0.19-0.44-0.27-0.67l1.12-1
					c-0.05-0.27-0.08-0.55-0.08-0.83s0.03-0.56,0.08-0.83l-1.11-1.01c0.08-0.23,0.17-0.45,0.28-0.67l1.5,0.08
					c0.32-0.46,0.72-0.86,1.19-1.17l-0.07-1.5c0.22-0.11,0.44-0.19,0.67-0.27l1,1.12c0.27-0.05,0.55-0.08,0.83-0.08
					s0.56,0.03,0.83,0.08l1.01-1.11c0.23,0.08,0.45,0.17,0.67,0.28l-0.08,1.5c0.46,0.32,0.86,0.72,1.17,1.19l1.5-0.07
					c0.11,0.22,0.19,0.44,0.27,0.67l-1.12,1C99.02,65.38,99.04,65.65,99.04,65.94z"/>
			</g>
		</g>
	</g>
	<g>
		<g>
			<g>
				<path id="small-wheel-two" class="st3" d="M104.98,156.12c0-0.53-0.04-1.04-0.14-1.55l2.08-1.85c-0.15-0.43-0.31-0.84-0.5-1.24l-2.78,0.13
					c-0.58-0.87-1.32-1.61-2.18-2.2l0.16-2.78c-0.4-0.2-0.81-0.37-1.23-0.52l-1.89,2.06c-0.5-0.1-1.02-0.16-1.54-0.16
					c-0.53,0-1.04,0.05-1.55,0.14l-1.85-2.08c-0.43,0.14-0.84,0.31-1.24,0.5l0.13,2.78c-0.87,0.58-1.61,1.32-2.2,2.17l-2.78-0.16
					c-0.2,0.4-0.37,0.81-0.52,1.24l2.05,1.88c-0.1,0.5-0.16,1.02-0.16,1.54c0,0.53,0.04,1.04,0.14,1.55l-2.08,1.85
					c0.15,0.43,0.31,0.84,0.5,1.24l2.78-0.13c0.58,0.87,1.32,1.61,2.18,2.2l-0.16,2.78c0.4,0.2,0.81,0.37,1.23,0.52l1.88-2.05
					c0.5,0.1,1.02,0.16,1.54,0.16c0.53,0,1.04-0.05,1.55-0.14l1.85,2.08c0.43-0.14,0.84-0.31,1.24-0.5l-0.13-2.78
					c0.87-0.58,1.61-1.32,2.2-2.17l2.78,0.16c0.2-0.4,0.37-0.81,0.52-1.24l-2.05-1.88C104.92,157.18,104.98,156.65,104.98,156.12z
					 M101.26,156.11c0,0.28-0.03,0.56-0.08,0.83l1.11,1.01c-0.08,0.23-0.17,0.45-0.28,0.67l-1.5-0.08
					c-0.32,0.46-0.72,0.86-1.19,1.17l0.07,1.5c-0.22,0.11-0.44,0.19-0.67,0.27l-1-1.12c-0.27,0.05-0.55,0.08-0.83,0.08
					s-0.56-0.03-0.83-0.08l-1.01,1.11c-0.23-0.08-0.45-0.17-0.67-0.28l0.08-1.5c-0.46-0.32-0.86-0.72-1.17-1.19l-1.5,0.07
					c-0.11-0.22-0.19-0.44-0.27-0.67l1.12-1c-0.05-0.27-0.08-0.55-0.08-0.83s0.03-0.56,0.08-0.83l-1.11-1.01
					c0.08-0.23,0.17-0.45,0.28-0.67l1.5,0.08c0.32-0.46,0.72-0.86,1.19-1.17l-0.07-1.5c0.22-0.11,0.44-0.19,0.67-0.27l1,1.12
					c0.27-0.05,0.55-0.08,0.83-0.08s0.56,0.03,0.83,0.08l1.01-1.11c0.23,0.08,0.45,0.17,0.67,0.28l-0.08,1.5
					c0.46,0.32,0.86,0.72,1.17,1.19l1.5-0.07c0.11,0.22,0.19,0.44,0.27,0.67l-1.12,1C101.24,155.55,101.26,155.83,101.26,156.11z"/>
			</g>
		</g>
	</g>
</g>
</svg>
